<svg xmlns="http://www.w3.org/2000/svg" width="160" height="50" viewBox="0 0 160 50">
  <g id="binance-logo" transform="translate(-570 -2092)">
    <rect id="logo-container" width="160" height="50" transform="translate(570 2092)" fill="#fff" opacity="0"/>
    <g id="binance-logo-2" data-name="binance-logo" transform="translate(570 2101)">
      <path id="Path_600" data-name="Path 600" d="M9.786,13.447,16,7.233l6.218,6.217,3.616-3.616L16,0,6.17,9.831Z" fill="#555555"/>
      <rect id="Rectangle_1" data-name="Rectangle 1" width="5.114" height="5.114" transform="translate(0 16) rotate(-45)" fill="#555555"/>
      <path id="Path_601" data-name="Path 601" d="M9.786,18.554,16,24.768l6.218-6.217,3.618,3.614,0,0L16,32,6.169,22.17l-.005,0Z" fill="#555555"/>
      <rect id="Rectangle_2" data-name="Rectangle 2" width="5.114" height="5.114" transform="translate(24.769 16.002) rotate(-45)" fill="#555555"/>
      <path id="Path_602" data-name="Path 602" d="M19.668,16h0L16,12.329l-2.711,2.712h0l-.311.311-.643.643h0l0,.005,0,0L16,19.672,19.67,16l0,0Z" fill="#555555"/>
      <path id="Path_603" data-name="Path 603" d="M37.638,7.754H45.5a6,6,0,0,1,4.428,1.5,3.922,3.922,0,0,1,1.161,2.885v.049a4.164,4.164,0,0,1-.18,1.285,4,4,0,0,1-.482,1.006,3.832,3.832,0,0,1-.7.788,4.682,4.682,0,0,1-.855.582,5.722,5.722,0,0,1,2.317,1.515,3.879,3.879,0,0,1,.845,2.655v.048a4.4,4.4,0,0,1-.448,2.037,3.957,3.957,0,0,1-1.283,1.455,6.011,6.011,0,0,1-2.009.873,10.821,10.821,0,0,1-2.6.291H37.638Zm7.078,6.86a3.887,3.887,0,0,0,1.964-.424,1.465,1.465,0,0,0,.727-1.37v-.049a1.494,1.494,0,0,0-.63-1.3,3.114,3.114,0,0,0-1.818-.449H41.274v3.588Zm.994,6.837A3.586,3.586,0,0,0,47.65,21a1.536,1.536,0,0,0,.7-1.394V19.56a1.6,1.6,0,0,0-.655-1.346,3.527,3.527,0,0,0-2.109-.5H41.274v3.733h4.436Z" fill="#555555"/>
      <path id="Path_604" data-name="Path 604" d="M56.722,7.754h3.734v16.97H56.722Z" fill="#555555"/>
      <path id="Path_605" data-name="Path 605" d="M66.11,7.754h3.442L77.5,18.2V7.754h3.685v16.97H78.013L69.795,13.936V24.724H66.11Z" fill="#555555"/>
      <path id="Path_606" data-name="Path 606" d="M92.492,7.633h3.442l7.273,17.091H99.3l-1.552-3.806H90.576l-1.551,3.806H85.218Zm3.927,9.988-2.255-5.5-2.254,5.5Z" fill="#555555"/>
      <path id="Path_607" data-name="Path 607" d="M107.237,7.754h3.443L118.631,18.2V7.754h3.685v16.97H119.14l-8.218-10.788V24.724h-3.685Z" fill="#555555"/>
      <path id="Path_608" data-name="Path 608" d="M135.752,25.014a8.79,8.79,0,0,1-3.467-.679,8.367,8.367,0,0,1-4.582-4.63,8.939,8.939,0,0,1-.655-3.418v-.048a8.846,8.846,0,0,1,.655-3.406,8.747,8.747,0,0,1,1.818-2.788,8.427,8.427,0,0,1,2.788-1.891,9.078,9.078,0,0,1,3.588-.691,11.252,11.252,0,0,1,2.169.194,9.085,9.085,0,0,1,1.782.533,7.762,7.762,0,0,1,1.479.824,10.077,10.077,0,0,1,1.26,1.067l-2.375,2.739a9,9,0,0,0-2.025-1.406,5.159,5.159,0,0,0-2.315-.509,4.7,4.7,0,0,0-3.539,1.551,5.326,5.326,0,0,0-1.018,1.685,5.736,5.736,0,0,0-.363,2.049v.048a5.829,5.829,0,0,0,.363,2.06,5.391,5.391,0,0,0,1.006,1.7,4.662,4.662,0,0,0,3.551,1.576,5.2,5.2,0,0,0,2.46-.533,9.521,9.521,0,0,0,2-1.455l2.376,2.4a12.34,12.34,0,0,1-1.358,1.26,8.069,8.069,0,0,1-1.54.958,7.977,7.977,0,0,1-1.83.606,11.043,11.043,0,0,1-2.23.206Z" fill="#555555"/>
      <path id="Path_609" data-name="Path 609" d="M147.1,7.754h12.776v3.321h-9.091v3.442h8v3.321h-8V21.4H160v3.321H147.1Z" fill="#555555"/>
    </g>
  </g>
</svg>
