<svg xmlns="http://www.w3.org/2000/svg" width="160" height="50" viewBox="0 0 160 50">
  <g id="coinmarketcap-logo" transform="translate(-570 -2092)">
    <rect id="logo-container" width="160" height="50" transform="translate(570 2092)" fill="#555555" opacity="0"/>
    <path id="coinmarketcap-logo-2" data-name="coinmarketcap-logo" d="M23.569,16.45a1.461,1.461,0,0,1-1.466.107,2.252,2.252,0,0,1-.853-2.026V11.518c0-1.44-.56-2.479-1.52-2.746-1.626-.48-2.853,1.52-3.306,2.266L13.544,15.65V9.971c-.027-1.306-.453-2.08-1.253-2.32-.533-.16-1.333-.08-2.106,1.093L3.76,19.036a11.374,11.374,0,0,1-1.306-5.279A11.186,11.186,0,0,1,13.544,2.506,11.186,11.186,0,0,1,24.635,13.757v.053a2.839,2.839,0,0,1-1.066,2.639Zm3.519-2.693h0V13.7A13.684,13.684,0,0,0,13.544,0,13.661,13.661,0,0,0,0,13.757,13.678,13.678,0,0,0,13.544,27.514a13.309,13.309,0,0,0,9.2-3.679A1.246,1.246,0,1,0,21.063,22l-.027.027a10.956,10.956,0,0,1-15.489-.4q-.15-.158-.294-.322l5.785-9.278v4.292c0,2.053.8,2.719,1.466,2.906s1.68.053,2.773-1.68L18.45,12.4a2.952,2.952,0,0,1,.293-.427v2.613A4.609,4.609,0,0,0,20.849,18.8a3.874,3.874,0,0,0,3.973-.16,5.283,5.283,0,0,0,2.266-4.879ZM45.964,9.065a1.337,1.337,0,0,1,.613,1.04,1.178,1.178,0,0,1-1.146,1.173A2.021,2.021,0,0,1,45,11.2a4.381,4.381,0,0,0-2.586-.88A3.875,3.875,0,0,0,38.6,14.247q0,.1.008.2a3.868,3.868,0,0,0,3.623,4.1q.095.006.19.007A4.141,4.141,0,0,0,45.3,17.383a1.167,1.167,0,0,1,.667-.213,1.081,1.081,0,0,1,1.093,1.069q0,.012,0,.024a1.135,1.135,0,0,1-.533.933A6.329,6.329,0,1,1,42.445,8a6.026,6.026,0,0,1,3.519,1.066Zm6.345,2.666a4.428,4.428,0,0,1,4.346,4.479,4.535,4.535,0,0,1-4.346,4.559,4.586,4.586,0,0,1-4.533-4.559,4.517,4.517,0,0,1,4.533-4.479Zm-.027,6.825a2.129,2.129,0,0,0,1.92-2.32,2,2,0,0,0-1.809-2.179q-.055-.005-.111-.007a2.04,2.04,0,0,0-2.058,2.022q0,.082.005.165a2.192,2.192,0,0,0,2.053,2.32Zm5.865.826V13.091a1.229,1.229,0,0,1,1.205-1.253h.021A1.246,1.246,0,0,1,60.6,13.091v6.292a1.246,1.246,0,0,1-1.226,1.253,1.264,1.264,0,0,1-1.226-1.253Zm-.187-9.918A1.435,1.435,0,0,1,59.364,8h.011a1.457,1.457,0,0,1,1.44,1.466,1.426,1.426,0,1,1-2.853.027q0-.014,0-.027Zm7.332,6.505v3.413a1.227,1.227,0,0,1-2.453.053q0-.026,0-.053V12.8a.947.947,0,1,1,1.893-.027q0,.014,0,.027a3.558,3.558,0,0,1,2.693-1.066c2.453,0,3.546,1.84,3.546,3.946v3.706a1.227,1.227,0,0,1-2.453.053q0-.027,0-.053V15.97C68.52,14.9,68.386,14,66.84,14c-1.093,0-1.546.906-1.546,1.973Zm13.624,1.306a.8.8,0,0,1-.64-.32l-2.853-3.093v5.519a1.227,1.227,0,0,1-2.453.053q0-.027,0-.053V8.452a.519.519,0,0,1,.453-.32.858.858,0,0,1,.533.32l4.559,5.119a.6.6,0,0,0,.4.24.655.655,0,0,0,.4-.24l4.559-5.119a.793.793,0,0,1,.533-.32.465.465,0,0,1,.453.32V19.383a1.229,1.229,0,0,1-1.205,1.253h-.021a1.246,1.246,0,0,1-1.226-1.253V13.864l-2.853,3.093a.984.984,0,0,1-.64.32ZM90.7,18.556a2.172,2.172,0,0,0,2.027-2.308v-.011a2.09,2.09,0,0,0-1.962-2.21l-.064,0a2.046,2.046,0,0,0-1.951,2.137q0,.038,0,.076a2.146,2.146,0,0,0,1.946,2.32Zm2.613,1.12-.053-.293c-.48.933-2,1.36-2.959,1.36-2.293,0-4-2.08-4-4.559a4.254,4.254,0,0,1,4.021-4.475l.111,0a3.836,3.836,0,0,1,2.853,1.36l.053-.293a.934.934,0,0,1,.907-.959h.026a.973.973,0,0,1,.96.96v6.879a.956.956,0,0,1-.952.96h-.008a.918.918,0,0,1-.959-.875q0-.029,0-.058ZM101.979,14h-.267c-1.546.08-1.84.96-1.84,1.973v3.413a1.227,1.227,0,0,1-2.453.052q0-.026,0-.052V12.8a.947.947,0,1,1,1.893-.028q0,.014,0,.028a3.4,3.4,0,0,1,2.4-1.066h.24a1.15,1.15,0,0,1,1.12,1.146A1.121,1.121,0,0,1,101.979,14Zm9.465,4.8a1.172,1.172,0,0,1,.187.587,1.278,1.278,0,0,1-1.226,1.226,1.514,1.514,0,0,1-1.093-.693l-2.826-3.279v2.719a1.227,1.227,0,1,1-2.453.053q0-.027,0-.053v-10a1.227,1.227,0,1,1,2.453-.053q0,.027,0,.053V15.6l2.826-3.119a1.6,1.6,0,0,1,1.066-.667,1.225,1.225,0,0,1,1.173,1.2,1.049,1.049,0,0,1-.16.56l-2.24,2.453,2.293,2.773Zm4.8-4.772c-.667,0-1.76.347-1.76,1.386h3.546c-.026-1.04-1.146-1.386-1.786-1.386Zm3.2,2.959h-4.959c0,1.466,1.413,1.706,2.026,1.706a3.979,3.979,0,0,0,1.6-.32,1.207,1.207,0,0,1,.64-.187,1.007,1.007,0,0,1,.986,1.013,1.08,1.08,0,0,1-.533.88,4.406,4.406,0,0,1-2.666.693c-2.479,0-4.532-1.333-4.532-4.452,0-2.453,1.253-4.586,4.186-4.586a4.036,4.036,0,0,1,4.212,4.292.973.973,0,0,1-.96.96Zm6.825,3.759H125.6c-1.866,0-2.959-.826-2.959-3.733V14H122a1.134,1.134,0,0,1,0-2.266h.64V9.411a1.229,1.229,0,0,1,1.205-1.253h.021a1.246,1.246,0,0,1,1.226,1.253v2.32h1.013a1.128,1.128,0,0,1,1.093,1.146A1.159,1.159,0,0,1,126.108,14h-1.013V16.53c0,1.68.08,2.026.826,2.026h.347a1.1,1.1,0,0,1,1.093,1.093,1.116,1.116,0,0,1-1.093,1.093ZM138.132,9.065a1.337,1.337,0,0,1,.613,1.04,1.178,1.178,0,0,1-1.146,1.173,2.021,2.021,0,0,1-.427-.08,4.382,4.382,0,0,0-2.586-.88,3.875,3.875,0,0,0-3.821,3.929q0,.1.008.2a3.868,3.868,0,0,0,3.623,4.1q.095.006.19.007a4.141,4.141,0,0,0,2.879-1.173,1.167,1.167,0,0,1,.667-.213,1.081,1.081,0,0,1,1.093,1.069q0,.012,0,.024a1.135,1.135,0,0,1-.533.933A6.329,6.329,0,1,1,134.613,8a5.968,5.968,0,0,1,3.519,1.066Zm6.212,9.491a2.172,2.172,0,0,0,2.027-2.308v-.011a2.09,2.09,0,0,0-1.962-2.21l-.064,0a2.03,2.03,0,0,0-1.953,2.1q0,.055.007.109a2.164,2.164,0,0,0,1.946,2.32Zm2.613,1.12-.053-.293c-.48.933-2,1.36-2.959,1.36-2.293,0-4-2.08-4-4.559a4.254,4.254,0,0,1,4.021-4.475l.111,0a3.836,3.836,0,0,1,2.853,1.36l.053-.293a.934.934,0,0,1,.907-.959h.026a.973.973,0,0,1,.96.96v6.879a.956.956,0,0,1-.952.96h-.008a.918.918,0,0,1-.959-.875q0-.029,0-.058Zm8.612-1.12a2.146,2.146,0,0,0,1.946-2.32,2.03,2.03,0,0,0-1.838-2.206l-.108-.007a2.074,2.074,0,0,0-2.03,2.116q0,.048,0,.1a2.172,2.172,0,0,0,2.015,2.319h.011Zm-2.026,1.466v3.119a1.227,1.227,0,0,1-2.453.053q0-.026,0-.053V12.8a.956.956,0,0,1,.952-.96h.008a.98.98,0,0,1,.936,1.023l0,.044a3.943,3.943,0,0,1,2.879-1.173A4.255,4.255,0,0,1,160,16.1q0,.055,0,.11c0,2.453-1.68,4.559-4,4.559a4.7,4.7,0,0,1-2.453-.747Z" transform="translate(570 2103)" fill="#555555"/>
  </g>
</svg>
