<svg xmlns="http://www.w3.org/2000/svg" width="160" height="50" viewBox="0 0 160 50">
  <g id="coingecko-logo" transform="translate(-570 -2092)">
    <rect id="logo-container" width="160" height="50" transform="translate(570 2092)" fill="#555555" opacity="0"/>
    <g id="coingecko-logo-2" data-name="coingecko-logo" transform="translate(570 2096)">
      <g id="text">
        <path id="Path_581" data-name="Path 581" d="M66.137,16.607A3.53,3.53,0,0,0,62.46,13.67c-3.165,0-4.489,2.792-4.489,5.625s1.324,5.626,4.489,5.626c2.3,0,3.558-1.716,3.763-3.867h2.523a6.047,6.047,0,0,1-6.282,5.975c-4.426,0-7.074-3.516-7.074-7.736s2.638-7.742,7.065-7.742c3.329.02,5.955,1.862,6.267,5.047Z" fill="#555555"/>
        <path id="Path_582" data-name="Path 582" d="M70.274,21.314c0-3.268,1.964-5.625,5.4-5.625s5.4,2.356,5.4,5.625-1.964,5.648-5.4,5.648S70.274,24.6,70.274,21.314Zm8.438,0c0-1.839-.93-3.763-3.04-3.763s-3.04,1.923-3.04,3.763.93,3.786,3.04,3.786,3.04-1.924,3.04-3.786Z" fill="#555555"/>
        <path id="Path_583" data-name="Path 583" d="M83.1,11.9h2.358v2.234H83.1Zm0,4.076h2.358V26.672H83.1Z" fill="#555555"/>
        <path id="Path_584" data-name="Path 584" d="M88.019,15.979h2.234v1.572l.041.041a3.83,3.83,0,0,1,3.331-1.9c2.317,0,3.784,1.241,3.784,3.639v7.344H95.052V19.949c-.041-1.675-.7-2.4-2.088-2.4a2.606,2.606,0,0,0-2.586,2.812v6.309H88.019Z" fill="#555555"/>
        <path id="Path_585" data-name="Path 585" d="M113.108,26.672h-1.655l-.392-1.737a5.313,5.313,0,0,1-4.443,2.088c-4.423,0-7.077-3.521-7.077-7.736s2.654-7.736,7.074-7.736c3.218,0,5.936,1.716,6.328,5.047h-2.523c-.248-1.944-1.943-2.937-3.8-2.937-3.165,0-4.489,2.792-4.489,5.625s1.324,5.626,4.489,5.626a3.755,3.755,0,0,0,4.137-4.054h-3.93V18.895H113.1Z" fill="#555555"/>
        <path id="Path_586" data-name="Path 586" d="M117.432,21.935c0,1.676.91,3.165,2.874,3.165a2.477,2.477,0,0,0,2.6-1.779h2.235a4.683,4.683,0,0,1-4.84,3.64c-3.349,0-5.232-2.338-5.232-5.626,0-3.041,1.992-5.646,5.171-5.646,3.371,0,5.439,3.04,5.047,6.245Zm5.5-1.551a2.752,2.752,0,1,0-5.5,0Z" fill="#555555"/>
        <path id="Path_587" data-name="Path 587" d="M134.31,19.557a2.261,2.261,0,0,0-2.441-2.006c-1.226,0-2.937.64-2.937,3.887,0,1.779.786,3.662,2.833,3.662a2.542,2.542,0,0,0,2.545-2.441h2.358c-.435,2.772-2.145,4.3-4.9,4.3-3.351,0-5.191-2.379-5.191-5.523,0-3.227,1.759-5.749,5.274-5.749,2.482,0,4.6,1.241,4.82,3.867Z" fill="#555555"/>
        <path id="Path_588" data-name="Path 588" d="M138.66,11.9h2.358v8.4l4.261-4.322h2.9l-4.1,3.928,4.488,6.764h-2.88l-3.268-5.192-1.406,1.365v3.83H138.66Z" fill="#555555"/>
        <path id="Path_589" data-name="Path 589" d="M149.2,21.314c0-3.268,1.964-5.625,5.4-5.625s5.4,2.356,5.4,5.625-1.966,5.648-5.4,5.648S149.2,24.6,149.2,21.314Zm8.439,0c0-1.839-.932-3.763-3.041-3.763s-3.04,1.923-3.04,3.763.93,3.786,3.04,3.786,3.041-1.924,3.041-3.786Z" fill="#555555"/>
      </g>
      <g id="logo">
        <path id="Path_590" data-name="Path 590" d="M42.287,21.051A21.144,21.144,0,1,1,21.051,0h0a21.144,21.144,0,0,1,21.236,21.05Z" fill="#a6a6a6"/>
        <path id="Path_591" data-name="Path 591" d="M40.7,21.058A19.555,19.555,0,1,1,21.058,1.592h0A19.556,19.556,0,0,1,40.7,21.058Z" fill="#e3e3e3"/>
        <path id="Path_592" data-name="Path 592" d="M21.5,2.859a10.753,10.753,0,0,1,3.758,0,11.439,11.439,0,0,1,3.59,1.2A20.858,20.858,0,0,1,31.89,6.287c.959.78,1.914,1.578,2.822,2.451a14.308,14.308,0,0,1,2.407,2.911,16.558,16.558,0,0,1,1.685,3.4A15.46,15.46,0,0,1,39.5,22.5h-.121a34.318,34.318,0,0,0-1.839-6.988,27.271,27.271,0,0,0-1.446-3.256,31.992,31.992,0,0,0-1.9-3.054,11.078,11.078,0,0,0-2.55-2.574,14.854,14.854,0,0,0-3.239-1.6c-1.1-.435-2.2-.886-3.352-1.217s-2.323-.579-3.545-.82Z" fill="#555555"/>
        <path id="Path_593" data-name="Path 593" d="M31.063,14.156c-1.419-.411-2.89-.993-4.379-1.581A3,3,0,0,0,25.6,11.167c-.973-.844-2.8-.823-4.38-.449a10.935,10.935,0,0,0-5.119-.153C2.577,14.289,10.244,23.376,5.28,32.511c.706,1.5,8.32,10.241,19.336,7.9,0,0-3.768-9.054,4.734-13.4C36.246,23.47,41.229,16.924,31.063,14.156Z" fill="#a5a5a5"/>
        <path id="Path_594" data-name="Path 594" d="M32.733,20.1a.82.82,0,1,1-.824-.815A.82.82,0,0,1,32.733,20.1Z" fill="#555555"/>
        <path id="Path_595" data-name="Path 595" d="M21.217,10.712a20.222,20.222,0,0,1,5.467,1.857C25.918,10.347,23.339,10.051,21.217,10.712Z" fill="#5e5e5e"/>
        <path id="Path_596" data-name="Path 596" d="M22.155,16.33a3.781,3.781,0,1,1-3.783-3.78h0a3.78,3.78,0,0,1,3.781,3.778Z" fill="#555555"/>
        <path id="Path_597" data-name="Path 597" d="M21.033,16.364a2.66,2.66,0,1,1-2.66-2.66h0A2.66,2.66,0,0,1,21.033,16.364Z" fill="#595959"/>
        <path id="Path_598" data-name="Path 598" d="M35.8,21.769a18.911,18.911,0,0,1-11.491,3.8c-2.314,0-2.782-2.451-4.311-1.253a10.885,10.885,0,0,1-5.779,1.908,7.2,7.2,0,0,1-6.784-6.113c-.4,4.713-.6,8.185-2.367,12.164,3.524,5.643,11.926,10,19.553,8.12-.82-5.723,4.181-11.327,7-14.2a37.082,37.082,0,0,0,4.181-4.43Z" fill="#a5a5a5"/>
        <path id="Path_599" data-name="Path 599" d="M35.676,21.91a13.711,13.711,0,0,1-3.236,2.076,20.567,20.567,0,0,1-3.631,1.322,11.4,11.4,0,0,1-3.875.447A5.3,5.3,0,0,1,21.389,24.2l.041-.048a6.755,6.755,0,0,0,3.542.976A16.634,16.634,0,0,0,28.7,24.82,20.276,20.276,0,0,0,32.313,23.7a13.464,13.464,0,0,0,3.322-1.839Z" fill="#595959"/>
      </g>
    </g>
  </g>
</svg>
