<svg xmlns="http://www.w3.org/2000/svg" width="160" height="50" viewBox="0 0 160 50">
  <g id="pancakeswap-logo" transform="translate(-570 -2092)">
    <rect id="logo-container" width="160" height="50" transform="translate(570 2092)" fill="#555555" opacity="0"/>
    <g id="pancakeswap-logo-2" data-name="pancakeswap-logo" transform="translate(570 2104.999)">
      <path id="Path_610" data-name="Path 610" d="M30.851,19.122a1.094,1.094,0,0,1-.789-.231,1.059,1.059,0,0,1-.212-.731V7.016a1,1,0,0,1,.231-.731,1.009,1.009,0,0,1,.77-.25h4.715A5.829,5.829,0,0,1,39.531,7.17a4.31,4.31,0,0,1,1.27,3.387,4.285,4.285,0,0,1-1.27,3.368,5.853,5.853,0,0,1-3.965,1.116H33.738V18.16a1,1,0,0,1-.231.731,1.094,1.094,0,0,1-.789.231Zm4.407-6.871a1.641,1.641,0,0,0,1.213-.423,1.68,1.68,0,0,0,.443-1.27,1.707,1.707,0,0,0-.443-1.289,1.641,1.641,0,0,0-1.213-.423h-1.52v3.407Z" fill="#555555"/>
      <path id="Path_611" data-name="Path 611" d="M45.347,19.411a3.822,3.822,0,0,1-2.906-1.155,4.688,4.688,0,0,1-1.078-3.291,5.371,5.371,0,0,1,.731-2.829,4.947,4.947,0,0,1,2.1-1.867A7.006,7.006,0,0,1,47.329,9.6a9.194,9.194,0,0,1,2.579.327,7.567,7.567,0,0,1,2.079.9v7.7a.633.633,0,0,1-.135.481.877.877,0,0,1-.539.115H49.35a.749.749,0,0,1-.327-.058.582.582,0,0,1-.192-.231l-.25-.577a3.255,3.255,0,0,1-1.347.866,5.4,5.4,0,0,1-1.886.289Zm1.443-2.618a1.739,1.739,0,0,0,1.174-.366,1.3,1.3,0,0,0,.423-1.039v-3a2.158,2.158,0,0,0-.924-.173,2.056,2.056,0,0,0-1.636.712,3.029,3.029,0,0,0-.6,2Q45.231,16.793,46.79,16.793Z" fill="#555555"/>
      <path id="Path_612" data-name="Path 612" d="M54.665,19.122a1.094,1.094,0,0,1-.789-.231,1,1,0,0,1-.231-.731V10.481a.668.668,0,0,1,.115-.462.78.78,0,0,1,.539-.135h1.982a.63.63,0,0,1,.346.077.26.26,0,0,1,.154.231l.1.577a3.706,3.706,0,0,1,1.4-.847A5.627,5.627,0,0,1,60.246,9.6a3.577,3.577,0,0,1,2.521.885,3.293,3.293,0,0,1,.962,2.579v5.1a1,1,0,0,1-.231.731,1.022,1.022,0,0,1-.77.231H60.862a1.17,1.17,0,0,1-.808-.231,1,1,0,0,1-.231-.731V13.31a1.14,1.14,0,0,0-.25-.828,1.078,1.078,0,0,0-.789-.25,1.339,1.339,0,0,0-.924.308,1.106,1.106,0,0,0-.327.847V18.16a1,1,0,0,1-.231.731,1.022,1.022,0,0,1-.77.231Z" fill="#555555"/>
      <path id="Path_613" data-name="Path 613" d="M70.533,19.411a6.212,6.212,0,0,1-4.157-1.251,4.522,4.522,0,0,1-1.463-3.638,4.894,4.894,0,0,1,.674-2.579,4.493,4.493,0,0,1,1.944-1.732A6.99,6.99,0,0,1,70.571,9.6a8.5,8.5,0,0,1,2.233.25,4.935,4.935,0,0,1,1.636.77.4.4,0,0,1,.212.346.843.843,0,0,1-.154.4l-.789,1.367q-.135.269-.327.269a.843.843,0,0,1-.366-.154,4.589,4.589,0,0,0-.982-.481,3.441,3.441,0,0,0-1.116-.154,2.073,2.073,0,0,0-1.559.616,2.378,2.378,0,0,0-.577,1.694,2.291,2.291,0,0,0,.6,1.694,2.253,2.253,0,0,0,1.636.577,3.4,3.4,0,0,0,1.116-.173,5.6,5.6,0,0,0,1.02-.481.956.956,0,0,1,.385-.154q.173,0,.308.269l.866,1.482a.745.745,0,0,1,.1.308.419.419,0,0,1-.231.327,6.081,6.081,0,0,1-1.771.77,8.345,8.345,0,0,1-2.271.269Z" fill="#555555"/>
      <path id="Path_614" data-name="Path 614" d="M79.685,19.411a3.822,3.822,0,0,1-2.906-1.155A4.687,4.687,0,0,1,75.7,14.965a5.371,5.371,0,0,1,.731-2.829,4.946,4.946,0,0,1,2.1-1.867A7.006,7.006,0,0,1,81.667,9.6a9.194,9.194,0,0,1,2.579.327,7.567,7.567,0,0,1,2.079.9v7.7a.633.633,0,0,1-.135.481.877.877,0,0,1-.539.115H83.688a.748.748,0,0,1-.327-.058.582.582,0,0,1-.192-.231l-.25-.577a3.255,3.255,0,0,1-1.347.866,5.4,5.4,0,0,1-1.886.289Zm1.443-2.617a1.739,1.739,0,0,0,1.174-.366,1.3,1.3,0,0,0,.423-1.039v-3a2.158,2.158,0,0,0-.924-.173,2.056,2.056,0,0,0-1.636.712,3.029,3.029,0,0,0-.6,2q0,1.867,1.559,1.867Z" fill="#555555"/>
      <path id="Path_615" data-name="Path 615" d="M98.414,18.391a.513.513,0,0,1,.135.346.392.392,0,0,1-.115.289.466.466,0,0,1-.308.1H95.143a1.577,1.577,0,0,1-.4-.039.876.876,0,0,1-.25-.212l-2.617-3.561V18.16a1,1,0,0,1-.231.731,1.094,1.094,0,0,1-.789.231H88.984a1.094,1.094,0,0,1-.789-.231,1.059,1.059,0,0,1-.212-.731V7.016a1,1,0,0,1,.231-.731,1.009,1.009,0,0,1,.77-.25h1.867a1.039,1.039,0,0,1,.789.25,1,1,0,0,1,.231.731v6.447l2.54-3.31a.633.633,0,0,1,.25-.212,1.077,1.077,0,0,1,.4-.058h2.983a.354.354,0,0,1,.289.115.332.332,0,0,1,.115.269.512.512,0,0,1-.135.346l-3.291,3.772Z" fill="#555555"/>
      <path id="Path_616" data-name="Path 616" d="M104.664,19.411a7.33,7.33,0,0,1-2.887-.539,4.478,4.478,0,0,1-1.982-1.617,4.586,4.586,0,0,1-.731-2.637,4.85,4.85,0,0,1,1.386-3.734,5.638,5.638,0,0,1,3.984-1.29,5.313,5.313,0,0,1,3.849,1.27,4.552,4.552,0,0,1,1.328,3.484q0,.962-.847.962H102.72a1.468,1.468,0,0,0,.616,1.27,3.341,3.341,0,0,0,1.9.443,5.327,5.327,0,0,0,1.309-.135,5.462,5.462,0,0,0,1.078-.443,1.057,1.057,0,0,1,.308-.1c.115,0,.212.077.289.231l.654,1.232a.74.74,0,0,1,.1.289.419.419,0,0,1-.231.327,5.441,5.441,0,0,1-1.79.751A10.229,10.229,0,0,1,104.664,19.411Zm1.482-6a1.493,1.493,0,0,0-.424-1.136,1.775,1.775,0,0,0-1.27-.4,1.8,1.8,0,0,0-1.289.423,1.436,1.436,0,0,0-.443,1.116Z" fill="#555555"/>
      <path id="Path_617" data-name="Path 617" d="M116.206,19.411a13.809,13.809,0,0,1-3.06-.327,6.884,6.884,0,0,1-2.329-.962q-.327-.212-.327-.443a.6.6,0,0,1,.115-.327l.943-1.5c.1-.154.206-.231.308-.231a.81.81,0,0,1,.328.135,7.073,7.073,0,0,0,1.616.654,6.694,6.694,0,0,0,1.79.25,2.537,2.537,0,0,0,1.328-.269.938.938,0,0,0,.443-.866,1.035,1.035,0,0,0-.481-.9,9.126,9.126,0,0,0-1.752-.828,10.747,10.747,0,0,1-3.041-1.636,3.126,3.126,0,0,1-1.077-2.5,3.379,3.379,0,0,1,1.366-2.906,6.022,6.022,0,0,1,3.638-1,10.888,10.888,0,0,1,2.694.289,5.289,5.289,0,0,1,1.925.847q.327.25.327.462a.575.575,0,0,1-.115.308l-.943,1.5c-.116.154-.219.231-.308.231a.809.809,0,0,1-.328-.135,4.735,4.735,0,0,0-2.656-.731,2.462,2.462,0,0,0-1.27.269.956.956,0,0,0-.443.885,1.027,1.027,0,0,0,.231.693,2.2,2.2,0,0,0,.616.481q.4.192,1.232.5l.366.135a13.055,13.055,0,0,1,2.232,1.078,3.433,3.433,0,0,1,1.251,1.251,3.638,3.638,0,0,1,.424,1.848,3.305,3.305,0,0,1-1.29,2.733,5.9,5.9,0,0,1-3.753,1.02Z" fill="#555555"/>
      <path id="Path_618" data-name="Path 618" d="M125.338,19.122a.844.844,0,0,1-.443-.1.621.621,0,0,1-.23-.385l-2.483-8.314a.6.6,0,0,1-.039-.173c0-.18.129-.269.385-.269h2.541a.564.564,0,0,1,.365.1.4.4,0,0,1,.154.269l1.04,4.369,1.308-3.522a.8.8,0,0,1,.193-.308.6.6,0,0,1,.385-.1h1.212a.521.521,0,0,1,.366.1.674.674,0,0,1,.212.308l1.289,3.522,1.059-4.369a.531.531,0,0,1,.154-.269.486.486,0,0,1,.346-.1h2.56q.385,0,.385.269a.631.631,0,0,1-.038.173l-2.5,8.314a.626.626,0,0,1-.231.385.739.739,0,0,1-.424.1h-1.886a.7.7,0,0,1-.4-.1.9.9,0,0,1-.231-.385l-1.27-3.483-1.271,3.483a.557.557,0,0,1-.623.483l-.012,0Z" fill="#555555"/>
      <path id="Path_619" data-name="Path 619" d="M140.975,19.411a3.821,3.821,0,0,1-2.906-1.155,4.685,4.685,0,0,1-1.078-3.291,5.376,5.376,0,0,1,.731-2.829,4.951,4.951,0,0,1,2.1-1.867,7.007,7.007,0,0,1,3.137-.674,9.194,9.194,0,0,1,2.579.327,7.573,7.573,0,0,1,2.079.9v7.7a.632.632,0,0,1-.135.481.877.877,0,0,1-.539.115h-1.963a.748.748,0,0,1-.327-.058.579.579,0,0,1-.192-.231l-.251-.577a3.253,3.253,0,0,1-1.347.866A5.4,5.4,0,0,1,140.975,19.411Zm1.443-2.617a1.737,1.737,0,0,0,1.174-.366,1.3,1.3,0,0,0,.424-1.039v-3a2.16,2.16,0,0,0-.924-.173,2.056,2.056,0,0,0-1.636.712,3.028,3.028,0,0,0-.6,2q0,1.867,1.559,1.867Z" fill="#555555"/>
      <path id="Path_620" data-name="Path 620" d="M150.274,23.01a1.094,1.094,0,0,1-.789-.231,1.06,1.06,0,0,1-.212-.731V11.019A7.632,7.632,0,0,1,151.448,10a9.215,9.215,0,0,1,2.733-.4q5.812,0,5.813,4.927a5.029,5.029,0,0,1-1.232,3.561,4.516,4.516,0,0,1-3.484,1.328,4.9,4.9,0,0,1-1.231-.154,3.035,3.035,0,0,1-.963-.423v3.214a1,1,0,0,1-.231.731,1.094,1.094,0,0,1-.789.231Zm4.177-6.2a1.373,1.373,0,0,0,1.232-.616,3.012,3.012,0,0,0,.423-1.694,2.445,2.445,0,0,0-.5-1.751,1.957,1.957,0,0,0-1.5-.52,2.574,2.574,0,0,0-1.039.173v3.06a1.312,1.312,0,0,0,.366,1,1.425,1.425,0,0,0,1.02.346Z" fill="#555555"/>
      <path id="Path_621" data-name="Path 621" d="M4.39,3.866a3.266,3.266,0,1,1,6.476-.6V7.293q.677-.048,1.374-.048.669,0,1.321.044V3.266a3.266,3.266,0,1,1,6.476.6L19.153,8.6c3.033,1.324,5.327,3.624,5.327,6.514v1.749c0,2.377-1.572,4.367-3.771,5.71A16.469,16.469,0,0,1,12.24,24.73a16.469,16.469,0,0,1-8.469-2.159C1.572,21.228,0,19.238,0,16.862V15.113C0,12.238,2.27,9.947,5.278,8.62ZM18.021,9.22l1.034-5.538a2.267,2.267,0,1,0-4.495-.416V8.39q-.492-.063-1-.1-.65-.046-1.321-.047-.7,0-1.374.051-.507.038-1,.1V3.266a2.267,2.267,0,1,0-4.495.416L6.41,9.239C3.166,10.444,1,12.624,1,15.113v1.749c0,3.794,5.033,6.869,11.241,6.869s11.241-3.075,11.241-6.869V15.113C23.481,12.611,21.292,10.422,18.021,9.22Z" fill="#3a3a3a" fill-rule="evenodd"/>
      <path id="Path_622" data-name="Path 622" d="M23.481,16.862c0,3.794-5.033,6.869-11.241,6.869S1,20.656,1,16.862V15.113H23.481Z" fill="#dedede"/>
      <path id="Path_623" data-name="Path 623" d="M5.372,3.682a2.267,2.267,0,1,1,4.495-.416V8.4A18.442,18.442,0,0,1,14.56,8.39V3.266a2.267,2.267,0,1,1,4.495.416L18.02,9.22c3.271,1.2,5.46,3.391,5.46,5.893,0,3.794-5.033,6.869-11.241,6.869S1,18.907,1,15.113c0-2.489,2.167-4.669,5.41-5.874Z" fill="#989898" fill-rule="evenodd"/>
      <path id="Path_624" data-name="Path 624" d="M9.118,14.614c0,1.035-.559,1.874-1.249,1.874S6.62,15.649,6.62,14.614s.559-1.873,1.249-1.873S9.118,13.579,9.118,14.614Z" fill="#3a3a3a"/>
      <path id="Path_625" data-name="Path 625" d="M17.736,14.614c0,1.035-.559,1.874-1.249,1.874s-1.249-.839-1.249-1.874.559-1.873,1.249-1.873S17.736,13.579,17.736,14.614Z" fill="#3a3a3a"/>
    </g>
  </g>
</svg>
